<?xml version="1.0" encoding="UTF-8" standalone="no"?>
<!-- Created with Inkscape (http://www.inkscape.org/) -->

<svg
   width="32"
   height="32"
   viewBox="0 0 8.4666665 8.4666666"
   version="1.1"
   id="svg144"
   inkscape:version="1.2.2 (b0a8486541, 2022-12-01)"
   sodipodi:docname="file_pdf.svg"
   xmlns:inkscape="http://www.inkscape.org/namespaces/inkscape"
   xmlns:sodipodi="http://sodipodi.sourceforge.net/DTD/sodipodi-0.dtd"
   xmlns:xlink="http://www.w3.org/1999/xlink"
   xmlns="http://www.w3.org/2000/svg"
   xmlns:svg="http://www.w3.org/2000/svg"
   xmlns:rdf="http://www.w3.org/1999/02/22-rdf-syntax-ns#"
   xmlns:cc="http://creativecommons.org/ns#">
  <sodipodi:namedview
     id="namedview146"
     pagecolor="#ffffff"
     bordercolor="#000000"
     borderopacity="0.25"
     inkscape:showpageshadow="2"
     inkscape:pageopacity="0.0"
     inkscape:pagecheckerboard="0"
     inkscape:deskcolor="#d1d1d1"
     inkscape:document-units="px"
     showgrid="false"
     inkscape:zoom="12.457688"
     inkscape:cx="-14.569317"
     inkscape:cy="13.967279"
     inkscape:window-width="1920"
     inkscape:window-height="1019"
     inkscape:window-x="0"
     inkscape:window-y="0"
     inkscape:window-maximized="1"
     inkscape:current-layer="g1727" />
  <defs
     id="defs141">
    <linearGradient
       inkscape:collect="always"
       id="linearGradient1293">
      <stop
         style="stop-color:#000000;stop-opacity:0.41290322;"
         offset="0"
         id="stop1289" />
      <stop
         style="stop-color:#f9f9f9;stop-opacity:0;"
         offset="1"
         id="stop1291" />
    </linearGradient>
    <linearGradient
       inkscape:collect="always"
       xlink:href="#linearGradient1293"
       id="linearGradient1295"
       x1="4.9707665"
       y1="0.22110716"
       x2="6.2446589"
       y2="4.2308941"
       gradientUnits="userSpaceOnUse"
       spreadMethod="pad" />
  </defs>
  <g
     inkscape:label="Layer 1"
     inkscape:groupmode="layer"
     id="layer1">
    <path
       style="fill:#ececec;stroke-width:0.264583"
       d="M 1.5875001,7.9374999 H 6.8791666 V 2.38125 H 5.0270833 V 0.52916669 H 1.5875001 Z"
       id="path369" />
    <rect
       style="fill:#f9f9f9;stroke-width:0.264583"
       id="rect479"
       width="3.4395833"
       height="0.26458332"
       x="1.5875"
       y="0.52916664" />
    <g
       id="g1727"
       transform="matrix(0.0390625,0,0,0.0390625,1.7929199,1.5793453)">
      <path
         id="path847"
         style="fill:#cccccc;stroke-width:0.132513"
         d="m 61.744487,30.69143 c -4.053936,0.09079 -7.351918,0.874496 -10.930632,2.571168 -8.206953,3.890904 -13.926577,11.683817 -15.23664,20.768149 -0.262015,1.817217 -0.260558,5.47341 0,7.461691 0.608624,4.644313 2.452039,9.037007 5.418945,12.908856 1.059495,1.382651 3.48945,3.824644 4.78298,4.811 3.96598,3.024207 8.511209,4.91682 13.2625,5.526687 1.529854,0.1964 5.462046,0.17871 7.128097,-0.03976 4.821837,-0.632287 9.675401,-2.758396 13.487738,-5.884529 1.389827,-1.139666 3.485592,-3.333868 4.557743,-4.784494 3.607923,-4.881588 5.352698,-10.138744 5.352698,-16.155951 0,-4.570868 -0.784491,-8.025229 -2.716097,-12.00762 -1.427991,-2.944085 -3.091114,-5.220591 -5.577935,-7.620735 -5.162202,-4.982262 -11.531168,-7.554464 -18.707943,-7.554464 -0.277321,0 -0.551191,-0.006 -0.821454,0 z m 0.728709,4.095314 c 3.939614,0.004 6.940107,0.72282 10.440411,2.478394 2.306815,1.156979 4.098598,2.483489 6.068157,4.506172 3.159146,3.244371 5.163845,7.041819 6.094655,11.530498 0.351372,1.694432 0.481898,5.589985 0.251736,7.435183 -0.477864,3.831025 -2.1046,7.806433 -4.491496,10.973853 -0.880026,1.167808 -2.97243,3.280515 -4.186763,4.227849 -2.28372,1.781593 -4.649285,3.020938 -7.552074,3.936274 -0.996091,0.314074 -1.162745,0.308634 -1.07319,0.01325 0.203367,-0.670808 0.348053,-1.575689 0.397478,-2.504902 0.07831,-1.472134 1.001172,-3.800807 1.93439,-4.864014 0.820851,-0.935202 0.97754,-1.680965 0.993695,-4.718226 0.01335,-2.514313 0.04794,-2.80891 0.370979,-3.936273 0.5499,-1.919094 1.110098,-3.282858 1.775399,-4.254357 0.338113,-0.493723 0.883707,-1.365109 1.205682,-1.948256 0.321968,-0.583158 0.784158,-1.372726 1.033442,-1.749455 0.651226,-0.984162 2.055219,-2.340731 2.742595,-2.663943 0.768192,-0.361201 1.614578,-1.330111 1.894643,-2.173565 0.287882,-0.867017 0.190655,-2.241424 -0.18549,-2.743464 -0.221662,-0.29584 -0.359514,-0.344589 -0.927448,-0.344589 -0.520147,0 -0.748316,-0.07546 -1.006942,-0.318082 -0.355739,-0.333741 -0.609466,-0.289046 -0.609466,0.106028 0,0.309856 -0.471517,0.906211 -0.609466,0.768699 -0.05746,-0.05728 8.33e-4,-0.3853 0.132493,-0.728939 0.482516,-1.259417 0.633515,-2.062258 0.556469,-2.875998 -0.127033,-1.341717 -0.96236,-3.397896 -1.41767,-3.485656 -0.109486,-0.02109 -0.70767,0.381683 -1.324925,0.901234 -3.218871,2.709401 -5.66333,4.576302 -7.366584,5.606208 -0.812782,0.491429 -0.815364,0.493625 -2.186126,0.46387 -1.622952,-0.03519 -1.850695,0.04156 -4.557744,1.683188 -0.937596,0.56859 -1.991558,1.151198 -2.345117,1.285584 -0.355347,0.135067 -1.478154,0.330518 -2.517358,0.437363 -2.134305,0.219432 -2.712488,0.347046 -3.511051,0.808461 -0.78973,0.456305 -0.989469,0.796171 -0.821454,1.404865 0.164511,0.596002 1.042142,1.762904 2.093382,2.796477 l 0.794955,0.781953 -0.609466,0.940995 c -0.33647,0.519642 -0.844105,1.480117 -1.126186,2.133805 -0.560609,1.299149 -0.710882,1.553022 -1.828397,2.929012 -0.968102,1.192001 -2.045185,2.900058 -3.047327,4.864014 -0.85699,1.679495 -1.262183,2.121437 -2.835341,3.021786 -0.879426,0.503321 -0.857975,0.522577 -1.854895,-0.980756 -1.825605,-2.75297 -3.085715,-6.035961 -3.590547,-9.356932 -0.252255,-1.659409 -0.244008,-5.105695 0.01325,-6.838778 0.39236,-2.643239 1.395227,-5.541122 2.769094,-7.978574 1.865425,-3.30954 5.277522,-6.716818 8.572266,-8.57498 3.619213,-2.041157 7.276963,-2.999286 11.447353,-2.995279 z m 4.279508,15.029408 -1.218931,1.563907 -1.974138,0.278322 1.232181,-1.563906 z" />
    </g>
    <path
       style="fill:url(#linearGradient1295);stroke-width:0.288925;fill-opacity:1;stroke-dasharray:none;fill-rule:nonzero"
       d="M 5.0270833,2.38125 6.8791666,4.2333333 V 2.38125 Z"
       id="path587" />
    <rect
       style="fill:#cccccc;fill-rule:nonzero;stroke-width:0.288925;stroke-dasharray:none"
       id="rect1525"
       width="5.2916665"
       height="0.26458332"
       x="1.5875"
       y="7.6671195" />
    <rect
       style="fill:#ff2a2a;fill-rule:nonzero;stroke-width:0.318575;stroke-dasharray:none"
       id="rect1763"
       width="5.8208332"
       height="2.3812499"
       x="1.3229166"
       y="5.2916665" />
    <text
       xml:space="preserve"
       style="font-size:2.30906px;fill:#ff2a2a;fill-rule:nonzero;stroke-width:0.210124;stroke-dasharray:none"
       x="1.9228905"
       y="7.5239768"
       id="text1975"
       transform="scale(1.0340751,0.96704776)"><tspan
         sodipodi:role="line"
         id="tspan1973"
         style="font-style:normal;font-variant:normal;font-weight:900;font-stretch:normal;font-family:Roboto;-inkscape-font-specification:'Roboto Heavy';fill:#ffaaaa;stroke-width:0.210124"
         x="1.9228905"
         y="7.5239768">PDF</tspan></text>
    <path
       style="fill:#cccccc;stroke-width:0.264583"
       d="M 5.0270833,0.52916669 6.8791666,2.38125 H 5.0270833 Z"
       id="path367" />
  </g>
  <metadata
     id="metadata1608">
    <rdf:RDF>
      <cc:Work
         rdf:about="">
        <cc:license
           rdf:resource="https://www.mozilla.org/en-US/MPL/2.0/" />
      </cc:Work>
    </rdf:RDF>
  </metadata>
</svg>
